<?xml version="1.0"?>
<svg xmlns="http://www.w3.org/2000/svg" xmlns:xlink="http://www.w3.org/1999/xlink" version="1.1" id="Capa_1" x="0px" y="0px" viewBox="0 0 512.001 512.001" style="enable-background:new 0 0 512.001 512.001;" xml:space="preserve" width="64px" height="64px"><g><g>
	<g>
		<path d="M466.651,45.347c-3.899-3.909-10.237-3.909-14.136,0c-3.909,3.899-3.909,10.237,0,14.136    c3.899,3.909,10.237,3.909,14.136,0C470.56,55.584,470.56,49.246,466.651,45.347z" data-original="#000000" class="active-path" data-old_color="#000000" fill="#FFFFFF"/>
	</g>
</g><g>
	<g>
		<path d="M509.073,87.763l-7.783-7.78c12.764-19.21,10.899-45.657-6.363-62.907c-17.236-17.247-43.68-19.146-62.912-6.368    l-7.779-7.779c-3.904-3.904-10.232-3.904-14.139,0c-3.904,3.904-3.904,10.234,0,14.138l7.829,7.829    c-1.891,2.916-3.49,6.053-4.76,9.361c-3.341,1.272-6.476,2.864-9.395,4.762l-7.808-7.809c-3.904-3.904-10.232-3.904-14.139,0    c-3.904,3.904-3.904,10.234,0,14.138l7.79,7.791c-6.685,10.146-9.487,22.49-7.779,34.604L253.394,216.187    c-14.833-7.811-32.066-12.508-51.36-13.978c-0.075-0.008-0.151-0.013-0.226-0.02c-0.045-0.003-0.088-0.008-0.133-0.012    C144.73,197.928,77.239,222.69,37.538,262.39C-21.098,321.027-6.95,401.689,51.675,460.324    c58.499,58.488,139.186,72.882,197.932,14.136c15.332-15.332,28.976-35.541,39.46-58.443    c12.558-27.439,19.838-56.727,21.056-84.696c1.202-27.609-3.749-52.544-14.327-72.706l128.46-128.452    c12.325,1.738,24.594-1.182,34.607-7.78l7.789,7.789c3.904,3.904,10.232,3.905,14.139,0c3.904-3.904,3.904-10.234,0-14.138    l-7.809-7.809c1.897-2.919,3.49-6.053,4.762-9.395c3.308-1.27,6.445-2.868,9.362-4.759l7.829,7.829    c3.904,3.904,10.232,3.905,14.139,0C512.977,97.997,512.977,91.667,509.073,87.763z M235.469,460.323    c-50.845,50.844-119.983,35.528-169.657-14.136C20.075,400.441-2.035,330.24,51.675,276.53    c32.648-32.648,88.492-54.654,136.835-54.802c-3.861,10.091-10.972,15.681-11.185,15.918c-7.678,6.641-11.271,13.925-10.68,21.652    c0.817,10.662,9.393,18.793,19.676,25.945c-2.668,1.381-5.172,3.185-7.408,5.42c-11.695,11.695-11.695,30.724,0,42.419    c8.327,8.326,20.463,10.789,31.074,7.113c-1.476,15.682,1.498,28.163,9.032,37.984c7.556,9.85,18.045,15.122,28.187,20.22    c8.646,4.346,16.3,8.206,21.304,14.295C259.38,431.376,248.027,447.765,235.469,460.323z M193.054,304.801    c3.906-3.907,10.237-3.907,14.143,0c3.907,3.906,3.908,10.237,0.001,14.144c-3.9,3.9-10.245,3.9-14.144,0    S189.155,308.7,193.054,304.801z M276.973,393.071c-6.496-5.338-13.906-9.08-20.784-12.537    c-18.337-9.216-30.45-15.304-25.508-44.39c4.795-28.251-3.562-48.687-25.547-62.476c-15.049-9.438-18.394-13.854-18.55-15.896    c-0.326-4.22,15.799-9.856,22.485-34.705c11.625,1.613,22.186,4.658,31.573,9.098c-9.898,18.923-6.79,42.746,8.964,58.501    c3.905,3.904,10.233,3.904,14.139,0l17.079-17.078C294.714,305.288,293.313,349.641,276.973,393.071z M276.428,249.706    c-0.002,0.002-0.004,0.004-0.006,0.006l-18.539,18.537c-5.418-11.347-3.235-25.053,5.86-34.137l125.864-125.864    c1.837,2.777,3.953,5.381,6.326,7.759c0.01,0.01,0.017,0.02,0.027,0.03c0.009,0.009,0.019,0.016,0.028,0.025    c2.379,2.375,4.983,4.491,7.762,6.329L276.428,249.706z M480.794,73.61c-0.002,0.002-0.005,0.005-0.008,0.007    c-0.002,0.002-0.003,0.004-0.005,0.006l-0.001,0.001c-3.636,3.643-8.187,6.204-13.528,7.613c-3.478,0.917-6.194,3.631-7.115,7.108    c-1.418,5.352-3.981,9.912-7.619,13.551c-0.001,0.001-0.002,0.002-0.003,0.003c-0.001,0.001-0.002,0.002-0.003,0.003    c-8.811,8.808-22.514,11.413-34.13,5.852l19.999-19.999c3.904-3.904,3.904-10.234,0-14.139c-3.905-3.904-10.233-3.904-14.139,0    l-19.998,19.998c-5.563-11.628-2.95-25.322,5.849-34.126c0.002-0.002,0.004-0.004,0.006-0.006s0.003-0.004,0.005-0.006    c3.64-3.637,8.199-6.2,13.549-7.617c3.477-0.921,6.19-3.638,7.108-7.115c1.408-5.338,3.967-9.888,7.617-13.533    c0.001-0.001,0.001-0.001,0.002-0.002c0.001-0.001,0.002-0.003,0.004-0.004c11.718-11.721,30.674-11.731,42.403,0.006    C492.511,42.928,492.52,61.886,480.794,73.61z" data-original="#000000" class="active-path" data-old_color="#000000" fill="#FFFFFF"/>
	</g>
</g><g>
	<g>
		<path d="M193.055,403.77l-84.825-84.825c-3.904-3.903-10.234-3.903-14.139,0c-3.904,3.904-3.904,10.234,0,14.139l84.825,84.825    c3.905,3.904,10.234,3.904,14.139,0C196.958,414.005,196.958,407.675,193.055,403.77z" data-original="#000000" class="active-path" data-old_color="#000000" fill="#FFFFFF"/>
	</g>
</g></g> </svg>
