<?xml version="1.0"?>
<svg xmlns="http://www.w3.org/2000/svg" height="64px" viewBox="0 0 60 58" width="64px" class=""><g><g id="Page-1" fill="none" fill-rule="evenodd"><g id="020---Accordian" fill="rgb(0,0,0)" fill-rule="nonzero" transform="translate(0 -1)"><path id="Shape" d="m57 3h-16.184c-.4174114-1.19812955-1.5472421-2.00094546-2.816-2.00094546s-2.3985886.80281591-2.816 2.00094546h-2.368c-.4174114-1.19812955-1.5472421-2.00094546-2.816-2.00094546s-2.3985886.80281591-2.816 2.00094546h-2.368c-.4174114-1.19812955-1.5472421-2.00094546-2.816-2.00094546s-2.3985886.80281591-2.816 2.00094546h-16.184c-1.65685425 0-3 1.34314575-3 3v48c0 1.6568542 1.34314575 3 3 3h16.184c.4174114 1.1981296 1.5472421 2.0009455 2.816 2.0009455s2.3985886-.8028159 2.816-2.0009455h2.368c.4174114 1.1981296 1.5472421 2.0009455 2.816 2.0009455s2.3985886-.8028159 2.816-2.0009455h2.368c.4174114 1.1981296 1.5472421 2.0009455 2.816 2.0009455s2.3985886-.8028159 2.816-2.0009455h16.184c1.6568542 0 3-1.3431458 3-3v-48c0-1.65685425-1.3431458-3-3-3zm-13.816 52h-2.184v-50h2.184c-.1184378.32025698-.1806856.65856033-.184 1v48c.0033144.3414397.0655622.679743.184 1zm-10.184-50h2v50h-2zm-8 0h2v50h-2zm-8.184 0h2.184v50h-2.184c.1184378-.320257.1806856-.6585603.184-1v-48c-.0033144-.34143967-.0655622-.67974302-.184-1zm-14.816 49v-48c0-.55228475.44771525-1 1-1h7v3h-5c-.55228475 0-1 .44771525-1 1s.44771525 1 1 1h5v2h-5c-.55228475 0-1 .4477153-1 1s.44771525 1 1 1h5v4h-5c-.55228475 0-1 .4477153-1 1s.44771525 1 1 1h5v2h-5c-.55228475 0-1 .4477153-1 1s.44771525 1 1 1h5v2h-5c-.55228475 0-1 .4477153-1 1s.44771525 1 1 1h5v4h-5c-.55228475 0-1 .4477153-1 1s.44771525 1 1 1h5v2h-5c-.55228475 0-1 .4477153-1 1s.44771525 1 1 1h5v4h-5c-.55228475 0-1 .4477153-1 1s.44771525 1 1 1h5v2h-5c-.55228475 0-1 .4477153-1 1s.44771525 1 1 1h5v2h-5c-.55228475 0-1 .4477153-1 1s.44771525 1 1 1h5v3h-7c-.55228475 0-1-.4477153-1-1zm10 1v-50h2c.5522847 0 1 .44771525 1 1v48c0 .5522847-.4477153 1-1 1zm10 2c-.5522847 0-1-.4477153-1-1v-52c0-.55228475.4477153-1 1-1s1 .44771525 1 1v52c0 .5522847-.4477153 1-1 1zm8 0c-.5522847 0-1-.4477153-1-1v-52c0-.55228475.4477153-1 1-1s1 .44771525 1 1v52c0 .5522847-.4477153 1-1 1zm8 0c-.5522847 0-1-.4477153-1-1v-52c0-.55228475.4477153-1 1-1s1 .44771525 1 1v52c0 .5522847-.4477153 1-1 1zm7-3v-48c0-.55228475.4477153-1 1-1h2v50h-2c-.5522847 0-1-.4477153-1-1zm13 0c0 .5522847-.4477153 1-1 1h-7v-50h7c.5522847 0 1 .44771525 1 1z" data-original="#000000" class="active-path" data-old_color="#000000" fill="#FFFFFF"/><circle id="Oval" cx="55" cy="9" r="1" data-original="#000000" class="active-path" data-old_color="#000000" fill="#FFFFFF"/><circle id="Oval" cx="55" cy="15" r="1" data-original="#000000" class="active-path" data-old_color="#000000" fill="#FFFFFF"/><circle id="Oval" cx="53" cy="12" r="1" data-original="#000000" class="active-path" data-old_color="#000000" fill="#FFFFFF"/><circle id="Oval" cx="55" cy="21" r="1" data-original="#000000" class="active-path" data-old_color="#000000" fill="#FFFFFF"/><circle id="Oval" cx="53" cy="18" r="1" data-original="#000000" class="active-path" data-old_color="#000000" fill="#FFFFFF"/><circle id="Oval" cx="55" cy="27" r="1" data-original="#000000" class="active-path" data-old_color="#000000" fill="#FFFFFF"/><circle id="Oval" cx="53" cy="24" r="1" data-original="#000000" class="active-path" data-old_color="#000000" fill="#FFFFFF"/><circle id="Oval" cx="55" cy="33" r="1" data-original="#000000" class="active-path" data-old_color="#000000" fill="#FFFFFF"/><circle id="Oval" cx="53" cy="30" r="1" data-original="#000000" class="active-path" data-old_color="#000000" fill="#FFFFFF"/><circle id="Oval" cx="55" cy="39" r="1" data-original="#000000" class="active-path" data-old_color="#000000" fill="#FFFFFF"/><circle id="Oval" cx="53" cy="36" r="1" data-original="#000000" class="active-path" data-old_color="#000000" fill="#FFFFFF"/><circle id="Oval" cx="55" cy="45" r="1" data-original="#000000" class="active-path" data-old_color="#000000" fill="#FFFFFF"/><circle id="Oval" cx="53" cy="42" r="1" data-original="#000000" class="active-path" data-old_color="#000000" fill="#FFFFFF"/><circle id="Oval" cx="55" cy="51" r="1" data-original="#000000" class="active-path" data-old_color="#000000" fill="#FFFFFF"/><circle id="Oval" cx="53" cy="48" r="1" data-original="#000000" class="active-path" data-old_color="#000000" fill="#FFFFFF"/></g></g></g> </svg>
